<?xml version="1.0" encoding="UTF-8"?>
<svg xmlns="http://www.w3.org/2000/svg" xmlns:xlink="http://www.w3.org/1999/xlink" width="100pt" height="100pt" viewBox="0 0 100 100" version="1.1">
<defs>
<linearGradient id="linear0" gradientUnits="userSpaceOnUse" x1="-463.89" y1="505.03" x2="-461.35" y2="503.07" gradientTransform="matrix(46.521529,0,0,-51.66602,21568.234156,26052.256678)">
<stop offset="0" style="stop-color:rgb(75.294118%,43.529412%,73.333333%);stop-opacity:1;"/>
<stop offset="1" style="stop-color:rgb(43.137255%,30.196078%,60.784314%);stop-opacity:1;"/>
</linearGradient>
<linearGradient id="linear1" gradientUnits="userSpaceOnUse" x1="-466.58" y1="507" x2="-467.27" y2="507.8" gradientTransform="matrix(92.61732,0,0,-101.999933,43291.949686,51805.557344)">
<stop offset="0" style="stop-color:rgb(43.137255%,30.196078%,60.784314%);stop-opacity:1;"/>
<stop offset="0.14" style="stop-color:rgb(46.666667%,19.607843%,47.843137%);stop-opacity:1;"/>
<stop offset="0.29" style="stop-color:rgb(70.196078%,9.019608%,46.666667%);stop-opacity:1;"/>
<stop offset="0.84" style="stop-color:rgb(80.392157%,5.882353%,49.411765%);stop-opacity:1;"/>
<stop offset="1" style="stop-color:rgb(92.941176%,17.254902%,53.72549%);stop-opacity:1;"/>
</linearGradient>
<linearGradient id="linear2" gradientUnits="userSpaceOnUse" x1="-464.41" y1="508.4" x2="-462.45" y2="505.18" gradientTransform="matrix(50.943396,0,0,-47.768373,23618.529269,24239.446416)">
<stop offset="0" style="stop-color:rgb(75.294118%,43.529412%,73.333333%);stop-opacity:1;"/>
<stop offset="1" style="stop-color:rgb(43.137255%,30.196078%,60.784314%);stop-opacity:1;"/>
</linearGradient>
<linearGradient id="linear3" gradientUnits="userSpaceOnUse" x1="-464.93" y1="506.6" x2="-461.2" y2="503.55" gradientTransform="matrix(38.36478,0,0,-39.203418,17799.690373,19816.604205)">
<stop offset="0" style="stop-color:rgb(75.294118%,43.529412%,73.333333%);stop-opacity:1;"/>
<stop offset="1" style="stop-color:rgb(43.137255%,30.196078%,60.784314%);stop-opacity:1;"/>
</linearGradient>
<linearGradient id="linear4" gradientUnits="userSpaceOnUse" x1="-464.15" y1="506.14" x2="-461.88" y2="504.14" gradientTransform="matrix(59.100145,0,0,-60.230975,27388.843735,30475.089023)">
<stop offset="0" style="stop-color:rgb(75.294118%,43.529412%,73.333333%);stop-opacity:1;"/>
<stop offset="1" style="stop-color:rgb(43.137255%,30.196078%,60.784314%);stop-opacity:1;"/>
</linearGradient>
<linearGradient id="linear5" gradientUnits="userSpaceOnUse" x1="-465.48" y1="505.58" x2="-466.17" y2="506.39" gradientTransform="matrix(92.481858,0,0,-101.792716,43133.884857,51555.959946)">
<stop offset="0" style="stop-color:rgb(43.137255%,30.196078%,60.784314%);stop-opacity:1;"/>
<stop offset="0.14" style="stop-color:rgb(46.666667%,19.607843%,47.843137%);stop-opacity:1;"/>
<stop offset="0.29" style="stop-color:rgb(70.196078%,9.019608%,46.666667%);stop-opacity:1;"/>
<stop offset="0.84" style="stop-color:rgb(80.392157%,5.882353%,49.411765%);stop-opacity:1;"/>
<stop offset="1" style="stop-color:rgb(92.941176%,17.254902%,53.72549%);stop-opacity:1;"/>
</linearGradient>
<linearGradient id="linear6" gradientUnits="userSpaceOnUse" x1="-463.79" y1="505.17" x2="-461.25" y2="502.8" gradientTransform="matrix(46.521529,0,0,-51.66602,21570.430576,26052.256678)">
<stop offset="0" style="stop-color:rgb(75.294118%,43.529412%,73.333333%);stop-opacity:1;"/>
<stop offset="1" style="stop-color:rgb(43.137255%,30.196078%,60.784314%);stop-opacity:1;"/>
</linearGradient>
<linearGradient id="linear7" gradientUnits="userSpaceOnUse" x1="-469.11" y1="507.43" x2="-468.79" y2="507.75" gradientTransform="matrix(246.879536,0,0,-200.269966,115823.425254,101704.798795)">
<stop offset="0" style="stop-color:rgb(43.137255%,30.196078%,60.784314%);stop-opacity:1;"/>
<stop offset="0.14" style="stop-color:rgb(46.666667%,19.607843%,47.843137%);stop-opacity:1;"/>
<stop offset="0.53" style="stop-color:rgb(70.196078%,9.019608%,46.666667%);stop-opacity:1;"/>
<stop offset="0.79" style="stop-color:rgb(80.392157%,5.882353%,49.411765%);stop-opacity:1;"/>
<stop offset="1" style="stop-color:rgb(92.941176%,17.254902%,53.72549%);stop-opacity:1;"/>
</linearGradient>
</defs>
<g id="surface1">
<path style=" stroke:none;fill-rule:nonzero;fill:url(#linear0);" d="M 65.484375 18.710938 L 56.207031 25.027344 L 46.648438 10.421875 L 55.925781 4.105469 Z M 65.484375 18.710938 "/>
<path style=" stroke:none;fill-rule:nonzero;fill:url(#linear1);" d="M 73.035156 62.609375 L 88.882812 86.84375 L 69.996094 99.703125 L 54.136719 75.46875 L 51.367188 71.234375 L 70.265625 58.40625 L 73.035156 62.628906 Z M 73.035156 62.609375 "/>
<path style=" stroke:none;fill-rule:nonzero;fill:url(#linear2);" d="M 49.242188 78.804688 L 52.734375 84.160156 L 38.355469 93.921875 L 32.09375 84.359375 L 35.238281 82.1875 L 46.472656 74.539062 L 49.242188 78.773438 Z M 49.242188 78.804688 "/>
<path style=" stroke:none;fill-rule:nonzero;fill:url(#linear3);" d="M 80.878906 51.15625 L 84.914062 48.410156 L 91.175781 57.972656 L 81.894531 64.289062 L 78.402344 58.949219 L 83.648438 55.378906 Z M 78.402344 58.949219 L 75.636719 54.726562 L 80.878906 51.15625 L 83.648438 55.378906 Z M 78.402344 58.949219 "/>
<path style=" stroke:none;fill-rule:nonzero;fill:url(#linear4);" d="M 15.808594 52.527344 L 12.675781 54.667969 L 3.097656 40.054688 L 17.472656 30.265625 L 24.179688 40.507812 L 12.90625 48.15625 L 24.140625 40.507812 L 27.042969 44.878906 Z M 15.808594 52.527344 "/>
<path style=" stroke:none;fill-rule:nonzero;fill:url(#linear5);" d="M 50.828125 28.6875 L 31.941406 41.515625 L 29.039062 37.144531 L 13.371094 13.164062 L 32.257812 0.289062 L 47.972656 24.316406 Z M 50.828125 28.6875 "/>
<path style=" stroke:none;fill-rule:nonzero;fill:url(#linear6);" d="M 61.453125 21.464844 L 56.207031 25.035156 L 53.304688 20.664062 L 46.648438 10.421875 L 55.925781 4.105469 L 65.484375 18.710938 Z M 61.453125 21.464844 "/>
<path style=" stroke:none;fill-rule:nonzero;fill:rgb(44.313725%,28.235294%,58.823529%);fill-opacity:1;" d="M 37.996094 86.449219 L 35.238281 82.1875 L 46.472656 74.539062 L 49.242188 78.773438 Z M 37.996094 86.449219 "/>
<path style=" stroke:none;fill-rule:nonzero;fill:rgb(43.529412%,27.843137%,58.431373%);fill-opacity:1;" d="M 78.402344 58.949219 L 75.636719 54.726562 L 80.878906 51.15625 L 83.648438 55.378906 Z M 78.402344 58.949219 "/>
<path style=" stroke:none;fill-rule:nonzero;fill:rgb(53.333333%,31.764706%,62.352941%);fill-opacity:1;" d="M 15.808594 52.527344 L 12.90625 48.15625 L 24.140625 40.507812 L 27.042969 44.878906 Z M 15.808594 52.527344 "/>
<path style=" stroke:none;fill-rule:nonzero;fill:rgb(52.156863%,31.372549%,61.960784%);fill-opacity:1;" d="M 56.207031 25.035156 L 53.304688 20.664062 L 58.597656 17.0625 L 61.5 21.433594 L 56.253906 25.003906 Z M 56.207031 25.035156 "/>
<path style=" stroke:none;fill-rule:nonzero;fill:rgb(55.294118%,8.627451%,41.568627%);fill-opacity:1;" d="M 73.035156 62.609375 L 54.136719 75.4375 L 51.367188 71.234375 L 70.265625 58.40625 L 73.035156 62.628906 Z M 73.035156 62.609375 "/>
<path style=" stroke:none;fill-rule:nonzero;fill:rgb(65.490196%,5.098039%,43.529412%);fill-opacity:1;" d="M 47.972656 24.316406 L 50.828125 28.6875 L 31.941406 41.515625 L 29.039062 37.144531 L 47.925781 24.316406 Z M 47.972656 24.316406 "/>
<path style=" stroke:none;fill-rule:nonzero;fill:rgb(61.960784%,38.039216%,67.843137%);fill-opacity:1;" d="M 10.449219 20.820312 L 14.011719 26.277344 L 8.667969 29.890625 L 5.097656 24.464844 Z M 10.449219 20.820312 "/>
<path style=" stroke:none;fill-rule:nonzero;fill:rgb(50.196078%,32.54902%,63.921569%);fill-opacity:1;" d="M 29.695312 86.132812 L 33.226562 91.589844 L 27.886719 95.234375 L 24.316406 89.777344 Z M 29.695312 86.132812 "/>
<path style=" stroke:none;fill-rule:nonzero;fill:url(#linear7);" d="M 15.644531 91.628906 L 0 67.535156 L 83.597656 10.511719 L 100.046875 34.191406 Z M 15.644531 91.628906 "/>
</g>
</svg>
