<?xml version="1.0" encoding="UTF-8"?>
<svg xmlns="http://www.w3.org/2000/svg" xmlns:xlink="http://www.w3.org/1999/xlink" width="100pt" height="100pt" viewBox="0 0 100 100" version="1.1">
<g id="surface1">
<path style=" stroke:none;fill-rule:nonzero;fill:rgb(0%,16.470588%,25.490196%);fill-opacity:1;" d="M 0 0.195312 L 0 54.070312 L 50 76.921875 L 50 61.382812 L 16.546875 46.101562 L 16.546875 22.078125 L 50 37.367188 L 50 23.058594 Z M 0 0.195312 "/>
<path style=" stroke:none;fill-rule:nonzero;fill:rgb(0%,44.313725%,70.980392%);fill-opacity:1;" d="M 99.976562 0.195312 L 99.976562 54.070312 L 50 76.921875 L 50 61.382812 L 83.441406 46.101562 L 83.441406 22.078125 L 50 37.367188 L 50 23.058594 Z M 0 99.804688 L 0 45.929688 L 50 23.078125 L 50 38.617188 L 16.546875 53.910156 L 16.546875 76.703125 L 50 61.414062 L 50 76.953125 Z M 0 99.804688 "/>
<path style=" stroke:none;fill-rule:nonzero;fill:rgb(0%,16.470588%,25.490196%);fill-opacity:1;" d="M 99.976562 99.804688 L 99.976562 45.929688 L 50 23.078125 L 50 38.617188 L 83.441406 53.910156 L 83.441406 76.703125 L 50 61.414062 L 50 76.953125 Z M 99.976562 99.804688 "/>
</g>
</svg>
