<?xml version="1.0" encoding="UTF-8"?>
<svg xmlns="http://www.w3.org/2000/svg" xmlns:xlink="http://www.w3.org/1999/xlink" width="100pt" height="100pt" viewBox="0 0 100 100" version="1.1">
<g id="surface1">
<path style=" stroke:none;fill-rule:nonzero;fill:rgb(83.921569%,72.941176%,19.215686%);fill-opacity:1;" d="M 50 0 L 99.910156 0 L 90.882812 89.992188 L 50 100 L 9.117188 89.992188 L 0.0898438 0 Z M 50 0 "/>
<path style=" stroke:none;fill-rule:nonzero;fill:rgb(100%,85.098039%,23.921569%);fill-opacity:1;" d="M 90.894531 7.113281 L 83.164062 84.234375 L 50.082031 92.308594 L 50.082031 7.113281 Z M 90.894531 7.113281 "/>
<path style=" stroke:none;fill-rule:nonzero;fill:rgb(92.156863%,92.156863%,92.156863%);fill-opacity:1;" d="M 36.222656 65.820312 L 16.871094 60.980469 L 16.773438 71.289062 L 46.171875 78.597656 L 45.957031 19.117188 L 36.386719 19.117188 Z M 36.222656 65.820312 "/>
<path style=" stroke:none;fill-rule:nonzero;fill:rgb(100%,100%,100%);fill-opacity:1;" d="M 54.246094 19.117188 L 86.285156 19.066406 L 84.8125 29.324219 L 64.117188 29.5 L 64.105469 45.371094 L 83.890625 43.390625 L 81.5625 72.164062 L 54.246094 78.433594 L 54.246094 67.035156 L 73.996094 63.484375 L 74.296875 54.433594 L 54.246094 57.5 Z M 54.246094 19.117188 "/>
</g>
</svg>
