<?xml version="1.0" encoding="UTF-8"?>
<svg xmlns="http://www.w3.org/2000/svg" xmlns:xlink="http://www.w3.org/1999/xlink" width="100pt" height="100pt" viewBox="0 0 100 100" version="1.1">
<g id="surface1">
<path style=" stroke:none;fill-rule:nonzero;fill:rgb(100%,100%,100%);fill-opacity:1;" d="M 0.34375 49.820312 C 0.34375 58.210938 7.667969 66.054688 19.222656 70.476562 C 16.910156 83.476562 18.804688 93.957031 25.125 98.039062 C 31.621094 102.238281 41.300781 99.332031 50.488281 90.335938 C 59.449219 98.964844 68.496094 102.359375 74.804688 98.296875 C 81.300781 94.085938 83.277344 82.898438 80.902344 69.5 C 92.925781 65.039062 99.65625 58.363281 99.65625 49.851562 C 99.65625 41.636719 92.324219 34.542969 80.929688 30.152344 C 83.480469 16.214844 81.320312 5.972656 74.707031 1.710938 C 68.386719 -2.410156 59.214844 1.164062 50.152344 10.015625 C 40.695312 0.617188 31.664062 -2.25 25.050781 2.011719 C 18.714844 6.121094 16.902344 16.78125 19.222656 30.03125 C 8.058594 34.382812 0.34375 41.667969 0.34375 49.820312 Z M 0.34375 49.820312 "/>
<path style=" stroke:none;fill-rule:nonzero;fill:rgb(32.54902%,75.686275%,87.058824%);fill-opacity:1;" d="M 78.519531 34.480469 C 77.632812 34.132812 76.652344 33.792969 75.675781 33.484375 C 75.835938 32.757812 75.988281 32.03125 76.121094 31.324219 C 78.261719 19.640625 76.859375 10.222656 72.058594 7.128906 C 67.464844 4.140625 59.9375 7.257812 52.335938 14.664062 C 51.609375 15.371094 50.871094 16.125 50.140625 16.914062 C 49.652344 16.394531 49.164062 15.917969 48.683594 15.410156 C 40.6875 7.445312 32.730469 4.152344 27.941406 7.257812 C 23.347656 10.242188 21.984375 19.082031 23.914062 30.152344 C 24.101562 31.214844 24.324219 32.3125 24.574219 33.417969 C 23.445312 33.773438 22.351562 34.164062 21.300781 34.570312 C 11.96875 38.214844 6.007812 43.929688 6.007812 49.859375 C 6.007812 55.984375 12.40625 62.113281 22.128906 65.835938 C 22.902344 66.136719 23.691406 66.414062 24.519531 66.671875 C 24.253906 67.878906 24.019531 69.050781 23.824219 70.207031 C 21.976562 81.085938 23.417969 89.726562 28.003906 92.683594 C 32.738281 95.738281 40.6875 92.605469 48.445312 85.027344 C 49.058594 84.421875 49.671875 83.792969 50.285156 83.128906 C 51.074219 83.984375 51.875 84.800781 52.667969 85.554688 C 60.105469 92.78125 67.542969 95.699219 72.128906 92.734375 C 76.859375 89.667969 78.351562 80.378906 76.394531 69.09375 C 76.246094 68.226562 76.066406 67.351562 75.871094 66.453125 C 76.433594 66.265625 76.972656 66.074219 77.507812 65.878906 C 87.621094 62.125 94.199219 56.0625 94.199219 49.859375 C 94.199219 43.886719 88.046875 38.15625 78.519531 34.480469 Z M 78.519531 34.480469 "/>
<path style=" stroke:none;fill-rule:nonzero;fill:rgb(100%,100%,100%);fill-opacity:1;" d="M 76.324219 61.875 C 75.84375 62.054688 75.347656 62.222656 74.839844 62.394531 C 73.617188 58.113281 72.132812 53.933594 70.398438 49.878906 C 72.070312 45.882812 73.507812 41.761719 74.691406 37.546875 C 75.578125 37.835938 76.46875 38.144531 77.355469 38.472656 C 85.515625 41.617188 90.492188 46.265625 90.492188 49.859375 C 90.492188 53.671875 85.117188 58.628906 76.386719 61.875 Z M 72.699219 69.910156 C 73.558594 74.1875 73.703125 78.609375 73.125 82.949219 C 72.601562 86.125 71.542969 88.234375 70.238281 89.082031 C 67.464844 90.882812 61.519531 88.542969 55.128906 82.359375 C 54.398438 81.65625 53.660156 80.898438 52.914062 80.101562 C 55.582031 76.769531 58.042969 73.242188 60.28125 69.539062 C 64.300781 69.1875 68.292969 68.523438 72.226562 67.550781 C 72.40625 68.367188 72.566406 69.160156 72.699219 69.9375 Z M 36.109375 88.773438 C 33.390625 89.847656 31.230469 89.875 29.886719 89.03125 C 27.105469 87.230469 25.949219 80.289062 27.523438 70.992188 C 27.710938 69.929688 27.921875 68.832031 28.171875 67.707031 C 32.089844 68.652344 36.058594 69.296875 40.054688 69.640625 C 42.382812 73.3125 44.925781 76.808594 47.664062 80.113281 C 47.070312 80.714844 46.511719 81.292969 45.984375 81.84375 C 43.101562 84.828125 39.753906 87.191406 36.109375 88.8125 Z M 23.382812 61.894531 C 19.648438 60.582031 16.160156 58.503906 13.097656 55.773438 C 10.910156 53.683594 9.808594 51.59375 9.808594 49.910156 C 9.808594 46.308594 14.589844 41.71875 22.582031 38.601562 C 23.550781 38.222656 24.5625 37.867188 25.613281 37.539062 C 26.796875 41.777344 28.226562 45.925781 29.886719 49.960938 C 28.1875 54.054688 26.730469 58.265625 25.523438 62.570312 C 24.777344 62.332031 24.046875 62.074219 23.347656 61.804688 Z M 27.648438 29.386719 C 25.996094 19.898438 27.097656 12.742188 29.859375 10.949219 C 32.8125 9.039062 39.335938 11.765625 46.214844 18.605469 C 46.660156 19.03125 47.101562 19.492188 47.539062 19.96875 C 44.832031 23.25 42.324219 26.730469 40.027344 30.378906 C 36.066406 30.777344 32.132812 31.460938 28.25 32.429688 C 28.03125 31.433594 27.824219 30.378906 27.648438 29.386719 Z M 65.660156 39.855469 C 64.769531 38.175781 63.882812 36.523438 62.992188 34.878906 C 65.8125 35.277344 68.503906 35.804688 70.992188 36.453125 C 70.179688 39.339844 69.234375 42.179688 68.167969 44.964844 C 67.367188 43.261719 66.523438 41.539062 65.632812 39.816406 Z M 50.140625 22.933594 C 51.980469 25.15625 53.710938 27.480469 55.332031 29.902344 C 53.609375 29.816406 51.863281 29.769531 50.097656 29.761719 C 48.320312 29.761719 46.621094 29.761719 44.90625 29.902344 C 46.621094 27.363281 48.382812 25.015625 50.140625 22.933594 Z M 34.527344 39.855469 C 33.636719 41.550781 32.828125 43.261719 32.039062 44.964844 C 30.945312 42.046875 30.003906 39.191406 29.238281 36.421875 C 31.753906 35.785156 34.4375 35.269531 37.238281 34.878906 C 36.304688 36.503906 35.40625 38.164062 34.527344 39.855469 Z M 37.316406 65.070312 C 34.585938 64.742188 31.871094 64.253906 29.183594 63.605469 C 29.96875 60.789062 30.960938 57.863281 32.046875 54.886719 C 32.835938 56.601562 33.664062 58.300781 34.542969 60.003906 C 35.4375 61.730469 36.363281 63.417969 37.316406 65.070312 Z M 50.25 77.015625 C 48.472656 74.855469 46.695312 72.476562 44.917969 69.910156 C 46.605469 69.976562 48.328125 70.019531 50.070312 70.019531 C 51.8125 70.019531 53.625 69.96875 55.402344 69.886719 C 53.789062 72.359375 52.0625 74.738281 50.230469 77.015625 Z M 68.230469 54.769531 C 69.355469 57.601562 70.339844 60.503906 71.1875 63.457031 C 68.472656 64.140625 65.730469 64.664062 62.96875 65.03125 C 63.855469 63.398438 64.746094 61.726562 65.632812 60.054688 C 66.523438 58.382812 67.410156 56.558594 68.191406 54.816406 Z M 62.40625 57.894531 C 60.992188 60.582031 59.617188 63.128906 58.175781 65.558594 C 55.5625 65.765625 52.84375 65.878906 50.097656 65.878906 C 47.351562 65.878906 44.683594 65.777344 42.097656 65.597656 C 40.605469 63.148438 39.15625 60.621094 37.789062 57.933594 C 36.417969 55.296875 35.167969 52.628906 34.027344 49.96875 C 35.167969 47.3125 36.417969 44.644531 37.78125 42.007812 C 39.140625 39.351562 40.566406 36.8125 42.054688 34.382812 C 44.675781 34.164062 47.386719 34.042969 50.054688 34.042969 C 52.789062 34.042969 55.484375 34.164062 58.105469 34.382812 C 59.5625 36.789062 60.984375 39.359375 62.355469 41.988281 C 63.722656 44.613281 65.019531 47.3125 66.15625 49.949219 C 65.011719 52.589844 63.742188 55.265625 62.363281 57.914062 Z M 70.183594 10.808594 C 73.132812 12.722656 74.28125 20.417969 72.421875 30.5 C 72.300781 31.164062 72.171875 31.828125 72.03125 32.492188 C 68.144531 31.507812 64.207031 30.8125 60.238281 30.410156 C 57.96875 26.75 55.476562 23.269531 52.78125 19.988281 C 53.457031 19.25 54.140625 18.566406 54.808594 17.898438 C 61.324219 11.558594 67.410156 9.046875 70.183594 10.839844 Z M 70.183594 10.808594 "/>
<path style=" stroke:none;fill-rule:nonzero;fill:rgb(32.54902%,75.686275%,87.058824%);fill-opacity:1;" d="M 50.097656 41.03125 C 54.453125 41.027344 57.988281 44.976562 57.988281 49.855469 C 57.992188 54.730469 54.464844 58.6875 50.109375 58.691406 C 45.753906 58.691406 42.222656 54.738281 42.222656 49.859375 C 42.222656 44.988281 45.746094 41.035156 50.097656 41.03125 "/>
</g>
</svg>
